<svg width="63" height="68" viewBox="0 0 63 68" fill="none" xmlns="http://www.w3.org/2000/svg">
<g id="Frame">
<path id="Vector" d="M19.6875 23.375H43.3125M19.6875 31.875H31.5M5.90625 36.1533C5.90625 40.6867 8.85412 44.6363 13.0121 45.2965C15.9757 45.7668 18.9709 46.1267 21.9975 46.3703C22.9163 46.444 23.7562 46.9653 24.2681 47.7898L31.5 59.5L38.7319 47.7898C38.9856 47.3826 39.3219 47.0431 39.7154 46.7971C40.1088 46.5512 40.549 46.4052 41.0025 46.3703C44.0085 46.1281 47.0056 45.7699 49.9879 45.2965C54.1459 44.6363 57.0938 40.6895 57.0938 36.1505V19.0995C57.0938 14.5605 54.1459 10.6137 49.9879 9.95351C43.8663 8.9837 37.6872 8.4979 31.5 8.50001C25.221 8.50001 19.047 8.99584 13.0121 9.95351C8.85412 10.6137 5.90625 14.5633 5.90625 19.0995V36.1505V36.1533Z" stroke="black" stroke-width="4" stroke-linecap="round" stroke-linejoin="round"/>
</g>
</svg>
